<svg xmlns="http://www.w3.org/2000/svg" xmlns:xlink="http://www.w3.org/1999/xlink" width="1086.615" height="1369.383" viewBox="0 0 1086.615 1369.383">
  <defs>
    <filter id="Path_68" x="0" y="263.645" width="690.823" height="1105.738" filterUnits="userSpaceOnUse">
      <feOffset dy="90" input="SourceAlpha"/>
      <feGaussianBlur stdDeviation="50" result="blur"/>
      <feFlood flood-color="#1a222b" flood-opacity="0.22"/>
      <feComposite operator="in" in2="blur"/>
      <feComposite in="SourceGraphic"/>
    </filter>
    <filter id="Path_67" x="336" y="102.951" width="750.615" height="1232.432" filterUnits="userSpaceOnUse">
      <feOffset dy="90" input="SourceAlpha"/>
      <feGaussianBlur stdDeviation="50" result="blur-2"/>
      <feFlood flood-color="#1a222b" flood-opacity="0.22"/>
      <feComposite operator="in" in2="blur-2"/>
      <feComposite in="SourceGraphic"/>
    </filter>
  </defs>
  <g id="Group_41392" data-name="Group 41392" transform="translate(-849.982 -19843.908)">
    <g id="Group_41391" data-name="Group 41391">
      <g id="Group_41330" data-name="Group 41330" transform="translate(1097.174 20119.986) rotate(-90)">
        <g id="Group_56" data-name="Group 56" transform="translate(40.854 56.211)">
          <path id="Path_283" data-name="Path 283" d="M20.649,527.919c.363-1.43.763-2.89,1.147-4.324,4.07-15.065,13.423-28.779,26.716-39.395a89.586,89.586,0,0,1,20.33-12.136c29.2-4.006,57.4-9.911,80.126-28.531,19.244-16.9,54.482-24.566,78.283-11.473,3.123,2.933,4.521,6.57,1.19,10.384-4.915,5.624-15.679,6.248-22.836,8.7a52.74,52.74,0,0,0-22.843,14.922c-5.567,6.417-8.363,13.948-12.272,21.084a34.712,34.712,0,0,1-20.808,17.306c-4.782,1.512-9.863,1.911-14.44,3.948a38,38,0,0,0-11.67,8.242c-12.384,12.572-13.58,30.349-26.35,42.6-7.257,6.972-17.99,10.423-28.447,12.579a33.665,33.665,0,0,1-26.437-5.076A50.691,50.691,0,0,1,26.575,550.3C22.431,543.175,21.338,535.616,20.649,527.919Z" transform="translate(-0.506 -418.999)" fill="#eec3ff"/>
          <path id="Path_284" data-name="Path 284" d="M119.6,444.556c-22.726,18.62-50.926,24.525-80.126,28.531.6-.259,1.2-.525,1.807-.771,9.9-4.028,20.757-5.615,30.978-8.842,20.263-6.374,34.3-20.715,52.711-29.671a92.282,92.282,0,0,1,30.428-8.592c10.219-1.082,21.72-1.028,31.529,1.916a29.344,29.344,0,0,1,10.956,5.957C174.084,419.991,138.846,427.653,119.6,444.556Z" transform="translate(28.86 -420.022)" fill="#e6f3f8"/>
          <path id="Path_285" data-name="Path 285" d="M30.747,564.383a48.934,48.934,0,0,0,21.021,14.6c10.2,3.479,20.575,1.477,30.6-1.529,10.431-3.147,19.344-8.1,25.593-15.948,11.368-14.313,12.5-35.462,31.506-44.989,5.04-2.534,11.022-2.814,16.367-4.734a43.123,43.123,0,0,0,13.311-7.441c6.945-5.918,10.085-13.957,13.879-21.427,4.316-8.443,10.354-15.723,19.69-20.7,8.386-4.456,18.423-5.149,26.924-9.272,7.728-3.736,11.44-11.438,6.586-18.2-5.217-7.283-15.973-10.337-25.388-11.5a102.188,102.188,0,0,0-63.753,12.846c-9.43,5.557-17.9,12.179-27.328,17.738a83.77,83.77,0,0,1-15.356,7.24c-5.836,2-11.98,3.32-18,4.855-19.037,4.823-35.829,13.989-48.126,27.267-8.219,8.9-14.865,19.507-17.775,30.684a1.018,1.018,0,0,0-.207.51c-.036.22-.046.454-.082.672a46.339,46.339,0,0,0-1.226,12.559,1.363,1.363,0,0,0,1.316,1.166c.018.244.041.508.084.765C21.583,548.528,24.4,556.982,30.747,564.383Zm-7.428-33c.363-1.43.763-2.89,1.147-4.324,4.07-15.065,13.423-28.779,26.716-39.395a89.716,89.716,0,0,1,22.137-12.907c9.9-4.028,20.757-5.615,30.978-8.842,20.263-6.374,34.3-20.715,52.711-29.671a92.283,92.283,0,0,1,30.428-8.592c10.219-1.082,21.72-1.028,31.529,1.916,7.293,2.171,18.615,8.933,12.146,16.341-4.915,5.624-15.679,6.248-22.836,8.7a52.739,52.739,0,0,0-22.843,14.922c-5.567,6.417-8.363,13.948-12.272,21.084a34.712,34.712,0,0,1-20.808,17.306c-4.782,1.512-9.863,1.911-14.44,3.948a38,38,0,0,0-11.67,8.242c-12.384,12.572-13.58,30.349-26.35,42.6-7.257,6.972-17.99,10.423-28.447,12.579A33.667,33.667,0,0,1,45.007,570.2a50.691,50.691,0,0,1-15.763-16.438C25.1,546.638,24.007,539.079,23.318,531.381Z" transform="translate(-3.175 -422.461)" fill="#622feb"/>
          <path id="Path_286" data-name="Path 286" d="M206.757,432.645c-34.421,15.449-66.707,34.313-94.755,57.217-27.871,22.762-51.874,49.008-70.562,77.692Q33.6,579.58,27.028,592.15c-2.153,4.121-4.306,8.242-6.315,12.412-2.094,4.339-3.732,9.1-6.919,12.946-.282.337-1.037.292-1.014-.209.177-4.015,1.951-7.851,3.561-11.613q2.4-5.621,5.073-11.155a246.648,246.648,0,0,1,12.615-22.682,321.223,321.223,0,0,1,31.2-42.2c23.373-26.838,51.848-50.457,83.868-69.919a332.538,332.538,0,0,1,57.3-27.773C206.854,431.779,207.2,432.442,206.757,432.645Z" transform="translate(-12.78 -411.488)" fill="#622feb"/>
        </g>
        <g id="Group_57" data-name="Group 57" transform="translate(0)">
          <path id="Path_287" data-name="Path 287" d="M20.471,478.813c22.846-19.075,38.2-40.121,50.23-64.17A31.067,31.067,0,0,1,81.68,403.065a117.435,117.435,0,0,1,19.311-4.177l.02,0a2.4,2.4,0,0,0,1-.117,2.179,2.179,0,0,1,.333-.082c1.144-.169,2.288-.339,3.412-.5a14.3,14.3,0,0,1,7.741,2.289c8.145,5.2,7.285,14.963,4.853,22.365a56.578,56.578,0,0,1-12.487,20.736c-5.506,5.942-11.629,11.484-13.846,18.985-2.03,6.8-1.047,13.911.527,20.7,1.62,6.989,3.991,13.849,5.056,20.935a67.688,67.688,0,0,1,.32,19.911c-2.061,14.259-10.162,26.743-25.552,33.628a90.374,90.374,0,0,1-27.9,6.929c-8.969.829-18.338.322-26.537-3.078A41.868,41.868,0,0,1-5.257,537.013C-5.541,515.467,1.751,494.724,20.471,478.813Z" transform="translate(12.862 -394.412)" fill="#eec3ff"/>
          <path id="Path_288" data-name="Path 288" d="M-5.366,528.54C-8.465,514.51-3.6,500.3,4.5,488.065c8.854-13.322,21.407-23.907,33.727-34.913,6.069-5.432,11.905-11.207,16.111-17.825,4.047-6.345,5.951-13.445,9.533-19.963,4-7.255,10.505-11.972,19.293-14.881.046-.015.095-.026.141-.041a31.068,31.068,0,0,0-10.979,11.579c-12.033,24.049-27.384,45.094-50.23,64.17C3.379,492.1-3.914,512.844-3.63,534.391A45.833,45.833,0,0,1-5.366,528.54Z" transform="translate(11.235 -391.789)" fill="#cae5f0"/>
          <path id="Path_289" data-name="Path 289" d="M-1.721,548.229c7.605,13.084,21.778,21.838,39.113,23.008,10.021.689,20.358-.842,29.913-3.369s18.768-6.5,25.772-12.641c11.729-10.285,15.7-24.9,15.492-38.79a88.509,88.509,0,0,0-3.233-21.427c-2.073-7.7-4.695-15.473-4.359-23.425a22.784,22.784,0,0,1,3.66-11.687c2.5-3.821,5.995-7.08,9.19-10.477A63.894,63.894,0,0,0,127.5,427.989c2.836-7.615,4.393-16.944-1.075-24.03-4.367-5.693-13.19-9.322-20.98-6.6a.678.678,0,0,0-.195.086c-2.163.173-4.344.428-6.535.78-9.64,1.514-19.523,3.948-27.075,9.425-6.886,4.983-10.1,12.175-13.05,19.188A66.206,66.206,0,0,1,44.4,448.665c-6.31,6.374-13.546,12.037-20.189,18.168C11.695,478.384.508,491.52-5.005,506.617-10.063,520.413-9.329,535.2-1.721,548.229Zm-.642-15.043c-3.1-14.03,1.769-28.239,9.868-40.475C16.359,479.39,28.912,468.8,41.232,457.8c6.069-5.432,11.905-11.207,16.111-17.825,4.047-6.345,5.951-13.445,9.533-19.963,4-7.255,10.505-11.972,19.293-14.881a116.788,116.788,0,0,1,19.452-4.218l.02,0a2.4,2.4,0,0,0,1-.117,2.179,2.179,0,0,1,.333-.082c1.144-.169,2.288-.339,3.412-.5a14.3,14.3,0,0,1,7.741,2.289c8.145,5.2,7.285,14.963,4.853,22.365A56.578,56.578,0,0,1,110.5,445.6c-5.506,5.942-11.629,11.484-13.846,18.985-2.03,6.8-1.047,13.911.527,20.7,1.62,6.989,3.991,13.849,5.056,20.935a67.689,67.689,0,0,1,.32,19.911C100.493,540.385,92.391,552.869,77,559.754a90.373,90.373,0,0,1-27.9,6.929c-8.969.829-18.338.322-26.537-3.078C8.695,557.86.4,545.655-2.364,533.186Z" transform="translate(8.233 -396.436)" fill="#622feb"/>
          <path id="Path_290" data-name="Path 290" d="M83.219,407.94a214.8,214.8,0,0,0-54.208,78.476c-12.763,31.816-17.9,65.379-20.6,98.768-.778,9.624-1.336,19.261-1.789,28.9-.23,4.9-.43,9.792-.625,14.691-.146,3.644-1.439,9.7,2.839,12.145a.711.711,0,0,1-.392,1.35c-8.5-.7-6.5-11.427-6.317-16.278.348-9.166.747-18.332,1.3-27.492a479.377,479.377,0,0,1,5.854-54.209c5.765-32.781,16.014-65.656,34.936-94.9,10.07-15.564,22.385-30.287,37.682-42.5C82.741,406.214,84.013,407.207,83.219,407.94Z" transform="translate(23.871 -384.572)" fill="#622feb"/>
        </g>
      </g>
      <g id="H" transform="translate(0 19909.215)">
        <g id="Group_98" data-name="Group 98" transform="translate(-105.307 -178)">
          <g transform="matrix(1, 0, 0, 1, 955.29, 112.69)" filter="url(#Path_68)">
            <path id="Path_68-2" data-name="Path 68" d="M260.218,172.782V851.425a53.549,53.549,0,0,0,53.547,53.548H577.5a53.539,53.539,0,0,0,53.537-53.546V172.782a53.541,53.541,0,0,0-53.546-53.548h-32a25.43,25.43,0,0,1-23.557,35.047H371.578a25.424,25.424,0,0,1-23.545-35.047H313.766a53.549,53.549,0,0,0-53.548,53.547Z" transform="translate(-100.22 214.41)" fill="#f5f4fc" stroke="#fff" stroke-miterlimit="10" stroke-width="20"/>
          </g>
          <g transform="matrix(1, 0, 0, 1, 955.29, 112.69)" filter="url(#Path_67)">
            <path id="Path_67-2" data-name="Path 67" d="M260.218,181.416V969.484a62.183,62.183,0,0,0,62.181,62.182H628.663a62.172,62.172,0,0,0,62.169-62.179V181.416a62.174,62.174,0,0,0-62.179-62.182H591.5a29.53,29.53,0,0,1-27.355,40.7H389.534a29.523,29.523,0,0,1-27.342-40.7H322.4a62.183,62.183,0,0,0-62.182,62.181Z" transform="translate(235.78 53.72)" fill="#f5f4fc" stroke="#fff" stroke-miterlimit="10" stroke-width="20"/>
          </g>
        </g>
      </g>
    </g>
    <text id="Your_Design_Here" data-name="Your Design
Here" transform="translate(1565.749 20474.734)" fill="#989898" font-size="23" font-family="Montserrat-Bold, Montserrat" font-weight="700"><tspan x="-73.048" y="0">Your Design</tspan><tspan x="-28.658" y="28">Here</tspan></text>
    <text id="Your_Design_Here-2" data-name="Your Design
Here" transform="translate(1196 20566.734)" fill="#989898" font-size="23" font-family="Montserrat-Bold, Montserrat" font-weight="700"><tspan x="-73.048" y="0">Your Design</tspan><tspan x="-28.658" y="28">Here</tspan></text>
  </g>
</svg>
